<?xml version="1.0" encoding="UTF-8"?>
<svg id="SMILE_LAB" data-name="SMILE LAB" xmlns="http://www.w3.org/2000/svg" viewBox="0 0 822.05 595.28">
  <defs>
    <style>
      .cls-1 {
        fill: #013bda;
      }
    </style>
  </defs>
  <g>
    <path class="cls-1" d="M420.48,312.33c-9.17,0-17.42-1.98-24.72-5.94-7.31-3.96-13.09-9.77-17.34-17.44-4.25-7.67-6.37-17.05-6.37-28.16s2.16-20.64,6.48-28.33,10.14-13.5,17.47-17.44c7.33-3.93,15.49-5.9,24.49-5.9,6.25,0,12.02.84,17.3,2.53,5.28,1.69,9.93,4.15,13.93,7.39,4,3.24,7.24,7.22,9.71,11.94,2.47,4.72,4.02,10.12,4.65,16.19h-27.66c-.27-2.16-.84-4.11-1.72-5.87-.88-1.75-2.04-3.26-3.47-4.52-1.44-1.26-3.16-2.23-5.16-2.9s-4.26-1.01-6.78-1.01c-4.54,0-8.4,1.11-11.57,3.34-3.17,2.23-5.57,5.42-7.18,9.58-1.62,4.16-2.43,9.16-2.43,15.01s.83,11.24,2.5,15.38c1.66,4.14,4.06,7.24,7.18,9.31,3.12,2.07,6.91,3.1,11.37,3.1,2.52,0,4.77-.34,6.75-1.01,1.98-.67,3.71-1.64,5.19-2.9,1.48-1.26,2.69-2.77,3.61-4.52.92-1.75,1.54-3.71,1.86-5.87h27.66c-.31,4.27-1.5,8.63-3.54,13.09-2.05,4.45-4.97,8.57-8.77,12.34-3.8,3.78-8.48,6.82-14.03,9.14-5.55,2.32-12.02,3.47-19.39,3.47Z"/>
    <path class="cls-1" d="M513.03,312.6c-7.2,0-13.4-1.28-18.62-3.84-5.22-2.56-9.22-5.99-12.01-10.29-2.79-4.29-4.18-9.03-4.18-14.2,0-3.78.7-7.14,2.09-10.08,1.39-2.94,3.38-5.63,5.97-8.06,2.58-2.43,5.65-4.74,9.21-6.95l22.8-14.17c1.53-.94,2.72-1.92,3.58-2.93.85-1.01,1.46-2.01,1.82-3,.36-.99.54-1.89.54-2.7,0-1.57-.6-2.98-1.79-4.22-1.19-1.24-3.02-1.85-5.5-1.85-1.53,0-2.84.28-3.95.84-1.1.56-1.96,1.36-2.56,2.39-.61,1.04-.91,2.25-.91,3.64,0,1.93.53,3.94,1.58,6,1.06,2.07,2.54,4.26,4.45,6.58,1.91,2.32,4.12,4.87,6.64,7.66l48.7,53.56h-27.12l-40.74-43.17c-2.02-2.16-4.24-4.78-6.64-7.86-2.41-3.08-4.49-6.56-6.24-10.46-1.75-3.89-2.63-8.13-2.63-12.71,0-5.13,1.22-9.79,3.68-14,2.45-4.2,5.88-7.55,10.29-10.05s9.56-3.74,15.45-3.74,10.47,1.16,14.54,3.47c4.07,2.32,7.21,5.4,9.41,9.24,2.2,3.84,3.31,8.11,3.31,12.78,0,3.1-.52,6.08-1.55,8.94-1.04,2.86-2.54,5.52-4.52,7.99-1.98,2.47-4.41,4.75-7.29,6.81l-20.78,14.7c-1.57,1.12-2.96,2.41-4.15,3.84-1.19,1.44-1.79,3.31-1.79,5.6,0,1.89.45,3.51,1.35,4.86.9,1.35,2.16,2.38,3.78,3.1,1.62.72,3.51,1.08,5.67,1.08,3.37,0,6.73-.81,10.08-2.43,3.35-1.62,6.41-3.9,9.17-6.85,2.77-2.94,4.99-6.42,6.68-10.42,1.69-4,2.53-8.36,2.53-13.09h21.45c0,5.8-.61,11.4-1.82,16.8-1.21,5.4-3.16,10.33-5.83,14.81-2.68,4.48-6.2,8.24-10.56,11.3l-7.55,3.64c-4,2.61-8.29,4.5-12.85,5.67-4.56,1.17-8.96,1.75-13.19,1.75Z"/>
    <path class="cls-1" d="M580.03,310.98v-100.51h43.3c7.46,0,14,1.47,19.59,4.42,5.6,2.95,9.96,7.09,13.09,12.44,3.12,5.35,4.69,11.6,4.69,18.75s-1.6,13.41-4.79,18.65c-3.19,5.24-7.67,9.29-13.42,12.14-5.76,2.86-12.46,4.28-20.1,4.28h-25.9v-21.18h20.37c3.24,0,6-.57,8.3-1.72,2.29-1.15,4.05-2.75,5.26-4.82,1.21-2.07,1.82-4.52,1.82-7.35s-.61-5.41-1.82-7.45c-1.21-2.05-2.97-3.61-5.26-4.69-2.29-1.08-5.06-1.62-8.3-1.62h-9.58v78.65h-27.25Z"/>
  </g>
  <g>
    <path class="cls-1" d="M250.13,207.66c-14.08-14.69-38.15-13.43-48.67,4.36-6.35,10.78-3.77,23.67-.25,35.36,4.17,13.13,9.78,27.87,8.24,42.26-1,11.08-4.25,20.41-6.23,30.68-1.78,9.22-1.77,18.57.08,27.79,1.65,8.41,4.83,16.59,9.34,23.89.53,1.03,2.05,2.96,2.64,3.28.07.05-.14.02-.37.08-.19.05-.35.16-.47.3-.1.13,0,.12.16-.13.47-.83.77-2,.95-3.12,2.38-19.91,8.76-39.41,19.26-56.49,2.66-4.43,5.66-8.68,8.86-12.71-2.9,6.07-5.72,12.49-7.94,18.81-5.78,16.14-9.13,33.02-9.74,50.11.03,15.58-14.26,19.57-22.91,7.08-10.43-14.52-15.69-32.5-14.9-50.38.42-13.56,6.06-27.5,7.47-40.47.72-6.17,0-12-1.3-18.12-3.81-16.74-11.42-35.3-5.82-52.84,5.45-18.68,27.45-30.46,45.53-22.94,6.62,2.53,12.47,7.17,16.08,13.2h0Z"/>
    <path class="cls-1" d="M259.84,222.13c9.92-.82,17.8-6.94,25.36-12.88,7.85-6.33,16.47-12.52,27.04-13.99,6.32-.87,13.23.95,18.21,5.07,12.9,10.44,12.97,30.31,7.29,44.47-12.88,31.82-48.64,42.95-80.32,38.14-6.72-.8-12.24-1.74-18.04.47-.01,0-.06.03-.05.02.04-.01.07-.04.1-.06.29-.18.62-.5.86-.79,2.24-2.59,1.63-7.07-1.18-9.05-.86-.63-1.86-1.06-2.86-1.04,6.56-1.19,14.15-.46,20.09,3.08,8.8,5.15,14.82,14.04,16.24,24.03.18,1.23.59,4.3.76,5.56,3.1,22.89,3.72,46.19,3.04,69.22.07.55.11.56.11.62,0,.06.31.33.55.43,3.52.96,6.38-3.5,8.24-6.43,0,0,3.64-6.16,3.64-6.16,9.54-16.71,17.3-34.43,23.12-52.83,2.94-9.28,5.34-18.71,7.4-28.24-1.04,19.68-5,39.08-11.15,57.82-3.14,9.38-6.89,18.59-11.2,27.55-2.54,4.91-4.2,9.39-8.18,13.79-5.18,5.82-14.74,7.83-20.72,1.38-4.59-5.26-2.9-11.8-3.42-17.88-.47-19.22-2.16-38.39-4.95-57.4,0,0-.54-3.56-.54-3.56-.49-4.15-1.95-8.26-4.72-11.39-3.82-4.62-8.96-6.88-14.95-5.89-2.95.53-6.3.56-8.87-1.39-3.77-2.67-4.12-8.38-.89-11.59,2.23-2.22,4.08-2.75,6.49-3.59,7.35-2.36,16.2-1.46,23.01-.4,17.63,2.69,36.51.87,51.46-9.2,12.81-8.72,22.18-24.11,20.3-39.92-.6-9.96-7.86-18.51-18.33-18-19.26.76-33.07,21.44-52.97,20.02h0Z"/>
    <circle class="cls-1" cx="334.79" cy="174.92" r="17.57"/>
  </g>
  <g>
    <path class="cls-1" d="M385.97,367.59c-2.8,0-5.24-.44-7.31-1.31s-3.68-2.15-4.85-3.82c-1.17-1.67-1.8-3.7-1.9-6.08h6.39c.11,1.26.51,2.32,1.19,3.16s1.58,1.47,2.7,1.88c1.12.41,2.36.62,3.72.62s2.69-.22,3.78-.66c1.09-.44,1.95-1.05,2.57-1.83s.92-1.7.92-2.74c0-.94-.27-1.72-.81-2.33s-1.3-1.14-2.29-1.57c-.98-.43-2.13-.81-3.44-1.13l-4.11-1.07c-3.03-.78-5.39-1.95-7.09-3.53-1.69-1.57-2.54-3.64-2.54-6.2,0-2.14.58-4.01,1.73-5.62,1.15-1.61,2.72-2.85,4.72-3.73,1.99-.88,4.25-1.33,6.78-1.33s4.84.45,6.78,1.34,3.46,2.12,4.56,3.7,1.67,3.36,1.71,5.37h-6.3c-.16-1.56-.85-2.76-2.08-3.61-1.22-.85-2.82-1.28-4.78-1.28-1.36,0-2.53.21-3.51.62-.98.41-1.73.98-2.26,1.69-.53.71-.79,1.53-.79,2.46,0,1,.31,1.83.94,2.48s1.41,1.17,2.36,1.56,1.91.71,2.88.95l3.38.88c1.34.32,2.65.75,3.91,1.29,1.26.53,2.4,1.21,3.42,2.03,1.01.82,1.82,1.81,2.42,2.98s.9,2.54.9,4.11c0,2.12-.54,3.99-1.63,5.6-1.09,1.61-2.65,2.87-4.69,3.77-2.04.9-4.51,1.35-7.39,1.35Z"/>
    <path class="cls-1" d="M406.13,367.03v-36.23h9.77l6.88,18.7c.24.7.51,1.59.81,2.69s.61,2.27.92,3.54c.32,1.26.62,2.5.9,3.71.28,1.21.52,2.27.72,3.2h-1.31c.19-.91.43-1.96.72-3.15.28-1.19.58-2.42.9-3.7s.62-2.46.92-3.56c.3-1.1.56-2.01.79-2.72l6.81-18.7h9.8v36.23h-6.47v-18.28c0-.78,0-1.72.02-2.82.02-1.1.04-2.29.07-3.55.03-1.26.06-2.54.1-3.83.03-1.29.05-2.52.05-3.68h.46c-.33,1.28-.68,2.59-1.06,3.93-.38,1.34-.76,2.63-1.13,3.89s-.73,2.41-1.06,3.46c-.33,1.05-.62,1.92-.86,2.6l-6.69,18.28h-5.52l-6.78-18.28c-.24-.68-.53-1.54-.86-2.56-.33-1.03-.69-2.17-1.07-3.42s-.76-2.55-1.14-3.9c-.38-1.35-.76-2.69-1.13-4h.53c.02,1.09.04,2.26.07,3.54.03,1.27.06,2.55.08,3.83.02,1.28.05,2.48.07,3.61.02,1.13.04,2.1.04,2.91v18.28h-6.37Z"/>
    <path class="cls-1" d="M459.05,330.81v36.23h-6.49v-36.23h6.49Z"/>
    <path class="cls-1" d="M466.84,367.03v-36.23h6.49v30.75h16v5.47h-22.49Z"/>
    <path class="cls-1" d="M495.49,367.03v-36.23h23.54v5.47h-17.04v9.77h15.78v5.4h-15.78v10.11h17.14v5.47h-23.63Z"/>
    <path class="cls-1" d="M539.18,367.03v-36.23h6.49v30.75h16v5.47h-22.49Z"/>
    <path class="cls-1" d="M565.4,367.03l12.64-36.23h8.24l12.93,36.23h-7.12l-6.44-18.82c-.63-1.95-1.29-4.15-1.97-6.6-.68-2.46-1.43-5.25-2.26-8.38h1.36c-.81,3.16-1.54,5.98-2.2,8.45s-1.28,4.65-1.86,6.53l-6.22,18.82h-7.1ZM572.77,358.06v-5.23h19.08v5.23h-19.08Z"/>
    <path class="cls-1" d="M604.56,367.03v-36.23h13.86c2.61,0,4.78.41,6.52,1.24,1.73.83,3.03,1.95,3.89,3.35.86,1.41,1.29,3.02,1.29,4.81,0,1.47-.28,2.74-.85,3.78-.57,1.05-1.33,1.89-2.27,2.54s-2.01,1.11-3.2,1.39v.36c1.28.07,2.51.45,3.7,1.17,1.18.71,2.15,1.72,2.91,3.01.75,1.3,1.13,2.86,1.13,4.69s-.45,3.57-1.36,5.06c-.91,1.49-2.27,2.67-4.1,3.53-1.82.86-4.12,1.29-6.89,1.29h-14.61ZM611.05,346.25h6.54c1.15,0,2.18-.21,3.09-.63.91-.42,1.62-1.02,2.15-1.8.53-.78.79-1.7.79-2.77,0-1.41-.5-2.57-1.48-3.48-.99-.91-2.46-1.36-4.4-1.36h-6.69v10.04ZM611.05,361.61h7.1c2.4,0,4.13-.46,5.19-1.39s1.59-2.11,1.59-3.55c0-1.08-.27-2.06-.8-2.93-.54-.87-1.29-1.55-2.27-2.05-.98-.5-2.14-.75-3.49-.75h-7.32v10.67Z"/>
  </g>
</svg>